<?xml version="1.0" encoding="utf-8"?>
<!-- Generator: Adobe Illustrator 24.1.2, SVG Export Plug-In . SVG Version: 6.00 Build 0)  -->
<svg version="1.1" id="Слой_1" xmlns="http://www.w3.org/2000/svg" xmlns:xlink="http://www.w3.org/1999/xlink" x="0px" y="0px"
	 viewBox="0 0 20 20" style="enable-background:new 0 0 20 20;" xml:space="preserve">
<style type="text/css">
	.st0{fill:#010202;}
</style>
<g>
	<path class="st0" d="M16.4,7.2c0-2-1.6-3.6-3.6-3.6c-1.9,0-3.7,0-5.6,0C6.7,3.5,6.1,3.7,5.6,4c-1.3,0.7-2,1.9-2,3.4
		c0,1.8,0,3.6,0,5.4c0,0.2,0,0.4,0,0.6c0.3,1.7,1.7,3,3.3,3.1c1,0,2,0,3,0c0,0,0,0,0,0h2.6c0.2,0,0.5,0,0.7-0.1
		c1.8-0.3,3.1-1.8,3.1-3.6C16.5,10.9,16.5,9,16.4,7.2z M15.4,12.3c0,1.7-1.4,3.1-3.1,3.1H7.8c-1.8,0-3.1-1.4-3.1-3.1
		c0-0.8,0-1.5,0-2.2c0,0,0,0,0,0c0-0.8,0-1.7,0-2.6C4.7,6,6,4.8,7.4,4.6c0.2,0,0.4,0,0.6,0h4.3c1.4,0,2.5,0.8,2.9,2
		c0.1,0.3,0.2,0.7,0.2,1.1C15.4,9.3,15.4,10.8,15.4,12.3z"/>
	<path class="st0" d="M13.6,6.6c0,0.5-0.4,0.8-0.8,0.8c-0.5,0-0.9-0.4-0.9-0.8c0-0.5,0.4-0.8,0.8-0.8C13.3,5.8,13.6,6.1,13.6,6.6z"
		/>
	<path class="st0" d="M9.7,6.9c-1.8,0-3.3,1.5-3.3,3.3c0,1.9,1.5,3.3,3.3,3.3c1.8,0,3.3-1.5,3.3-3.3C13,8.3,11.5,6.9,9.7,6.9z
		 M9.8,12.3c-1.2,0-2.1-0.9-2.1-2.1c0-1.2,0.9-2.1,2.1-2.1c1.2,0,2.1,1,2.1,2C11.9,11.3,10.9,12.3,9.8,12.3z"/>
</g>
<g>
	<path d="M10,1.1c4.9,0,8.9,4,8.9,8.9s-4,8.9-8.9,8.9s-8.9-4-8.9-8.9S5.1,1.1,10,1.1 M10,0C4.5,0,0,4.5,0,10s4.5,10,10,10
		s10-4.5,10-10S15.5,0,10,0L10,0z"/>
</g>
</svg>
