<?xml version="1.0" encoding="utf-8"?>
<!-- Generator: Adobe Illustrator 24.1.2, SVG Export Plug-In . SVG Version: 6.00 Build 0)  -->
<svg version="1.1" id="Слой_1" xmlns="http://www.w3.org/2000/svg" xmlns:xlink="http://www.w3.org/1999/xlink" x="0px" y="0px"
	 viewBox="0 0 538.5 169.5" style="enable-background:new 0 0 538.5 169.5;" xml:space="preserve">
<g>
	<g>
		<path d="M2.7,4.3h10.7c4.7,0,8.2,0.9,10.6,2.7c2.7,2.1,4,5,4,8.9c0,3.8-1.6,6.7-4.9,8.5c2.2,0.3,4.1,1.3,5.6,2.7
			c2.1,2,3.1,4.7,3.1,8.1c0,3.6-1.2,6.5-3.7,8.7c-2.6,2.3-6.3,3.5-10.9,3.5H2.7V4.3z M11.1,11.1v11.1h2.4c0.4,0,0.8,0,1.2,0
			c0.4,0,0.9-0.1,1.6-0.4c0.7-0.2,1.3-0.5,1.8-0.9c0.5-0.4,0.9-0.9,1.3-1.7c0.4-0.8,0.6-1.7,0.6-2.7c0-1.9-0.6-3.2-1.8-4.1
			c-1.2-0.9-2.8-1.3-4.7-1.3H11.1z M11.1,28.7v11.9h3.6c2.5,0,4.4-0.4,5.8-1.2c1.8-1,2.7-2.7,2.7-5c0-2.3-1.1-4-3.2-4.9
			c-1.2-0.6-3.1-0.8-5.8-0.8H11.1z"/>
		<path d="M75.5,47.5l-3.8-9.1H54.2l-3.8,9.1h-9.1L60,3.4h6.3l18.2,44.1H75.5z M56.9,31.5h12.3L63.1,16L56.9,31.5z"/>
		<path d="M121.7,8.4l-4.4,5.8c-1.9-2.5-4.2-3.7-7.1-3.7c-2.1,0-3.6,0.5-4.5,1.5c-1,1-1.4,2.2-1.4,3.5c0,1.2,0.5,2.1,1.4,2.9
			c0.7,0.6,2.4,1.5,5.2,2.5c4.3,1.5,7.2,2.9,8.7,4.3c2.5,2.2,3.7,5.2,3.7,9.1c0,4.2-1.4,7.7-4.2,10.3c-2.8,2.6-6.4,3.9-10.8,3.9
			c-6.2,0-11.2-2.7-14.9-8.2l5.5-5.2c0.9,1.9,2.3,3.4,3.9,4.3c1.7,1,3.4,1.4,5.1,1.4c1.9,0,3.5-0.6,4.8-1.7c1.3-1.1,1.9-2.5,1.9-4.3
			c0-1.5-0.6-2.8-1.7-3.9c-1-1-3.3-2-6.7-3.2c-3.2-1.1-5.6-2.3-7.2-3.8c-2.3-2-3.4-4.7-3.4-8c0-3.5,1.2-6.5,3.6-9
			c2.4-2.5,5.8-3.7,10.3-3.7C114.3,3.3,118.4,5,121.7,8.4z"/>
		<path d="M161.1,4.3v7.2h-15.5v9.6h14.9v7.3h-14.9v11.8h15.5v7.2h-24V4.3H161.1z"/>
		<path d="M175.7,4.3H187c3.4,0,6.4,0.3,8.9,0.9c2.5,0.6,4.9,1.7,7.1,3.3c2.6,2,4.7,4.5,6.1,7.5c1.4,3,2.2,6.3,2.2,9.9
			c0,7.6-2.9,13.4-8.7,17.4c-2.3,1.6-4.7,2.7-7.1,3.3c-2.4,0.6-5.3,0.8-8.7,0.8h-11.1V4.3z M184.1,11.5v28.7h2.6
			c4.4,0,7.9-0.9,10.6-2.8c1.7-1.2,3-2.8,3.9-4.9s1.4-4.2,1.4-6.6c0-2.3-0.5-4.5-1.4-6.5c-0.9-2-2.2-3.7-3.9-5
			c-2.5-1.9-6.1-2.8-10.6-2.8H184.1z"/>
		<path d="M28.4,68.9L24,74.7c-1.9-2.5-4.2-3.7-7.1-3.7c-2.1,0-3.6,0.5-4.5,1.5c-1,1-1.4,2.2-1.4,3.5c0,1.2,0.5,2.1,1.4,2.9
			c0.7,0.6,2.4,1.5,5.2,2.5c4.3,1.5,7.2,2.9,8.7,4.3c2.5,2.2,3.7,5.2,3.7,9.1c0,4.2-1.4,7.7-4.2,10.3c-2.8,2.6-6.4,3.9-10.8,3.9
			c-6.2,0-11.2-2.7-14.9-8.2l5.5-5.2c0.9,1.9,2.3,3.4,3.9,4.3c1.7,1,3.4,1.4,5.1,1.4c1.9,0,3.5-0.6,4.8-1.7c1.3-1.1,1.9-2.5,1.9-4.3
			c0-1.5-0.6-2.8-1.7-3.9c-1-1-3.3-2-6.7-3.2c-3.2-1.1-5.6-2.3-7.2-3.8c-2.3-2-3.4-4.7-3.4-8c0-3.5,1.2-6.5,3.6-9
			c2.4-2.5,5.8-3.7,10.3-3.7C21,63.9,25.1,65.6,28.4,68.9z"/>
		<path d="M43.8,64.8h8.4V92c0,2.7,0.7,4.9,2.1,6.4c1.6,2,3.9,3,6.9,3c2.9,0,5.2-1,6.9-3c1.4-1.6,2.1-3.7,2.1-6.4V64.8h8.4v26.4
			c0,4.9-1.1,8.8-3.2,11.5c-1.5,2-3.5,3.5-6.1,4.6c-2.5,1.1-5.2,1.6-8.1,1.6c-2.8,0-5.5-0.5-8.1-1.6c-2.5-1.1-4.5-2.6-6.1-4.6
			c-2.2-2.8-3.2-6.6-3.2-11.5V64.8z"/>
		<path d="M94.8,64.8h12.6c2.7,0,4.9,0.2,6.6,0.7c1.7,0.5,3.3,1.3,4.8,2.6c2.9,2.6,4.4,6.1,4.4,10.4c0,4.1-1.2,7.3-3.6,9.6
			c-2.5,2.5-6.2,3.8-10.9,3.8h-5.4v16h-8.4V64.8z M103.2,72.1v12.7h3.4c2.5,0,4.3-0.5,5.5-1.4c1.6-1.2,2.3-2.9,2.3-5.1
			c0-2.1-0.8-3.8-2.4-4.9c-1.3-0.9-3.3-1.4-6-1.4H103.2z"/>
		<path d="M159.8,64.8v7.2h-15.5v9.6h14.9V89h-14.9v11.8h15.5v7.2h-24V64.8H159.8z"/>
		<path d="M174.4,64.8h12.5c4.7,0,8.4,1.1,11,3.2c2.8,2.4,4.3,5.7,4.3,9.7c0,4.5-1.7,7.9-5,10.2c-1.3,0.9-2.9,1.5-4.7,1.9l13.5,18.2
			h-10.5l-11.5-17.3h-1V108h-8.4V64.8z M182.8,71.7v13h2.4c0.7,0,1.4-0.1,2-0.2c0.7-0.1,1.5-0.3,2.6-0.7c1.1-0.4,2-1,2.6-2
			c0.7-1,1-2.2,1-3.7c0-1.5-0.3-2.7-1-3.7s-1.5-1.6-2.6-2c-1.1-0.4-1.9-0.6-2.6-0.7c-0.6-0.1-1.3-0.1-2-0.1H182.8z"/>
		<path d="M222.4,70.2c4.3-4.2,9.8-6.3,16.6-6.3c6.8,0,12.3,2.1,16.6,6.3c4.3,4.2,6.4,9.6,6.4,16.2c0,6.6-2.1,12-6.4,16.2
			c-4.3,4.2-9.8,6.3-16.6,6.3c-6.8,0-12.3-2.1-16.6-6.3c-4.3-4.2-6.4-9.6-6.4-16.2C216,79.9,218.1,74.4,222.4,70.2z M228.6,97.2
			c2.7,2.8,6.1,4.2,10.4,4.2c4.2,0,7.7-1.4,10.4-4.2c2.7-2.8,4-6.4,4-10.7c0-4.4-1.4-7.9-4-10.7c-2.7-2.8-6.1-4.2-10.3-4.2
			c-4.2,0-7.6,1.4-10.3,4.2c-2.7,2.8-4,6.4-4,10.7C224.6,90.8,226,94.4,228.6,97.2z"/>
		<path d="M269.3,64.8h9.2l11.5,29l11.5-29h9.2L292.2,109h-4.5L269.3,64.8z"/>
		<path d="M346.2,64.8v7.2h-15.5v9.6h14.9V89h-14.9v11.8h15.5v7.2h-24V64.8H346.2z"/>
		<path d="M360.8,64.8h12.5c4.7,0,8.4,1.1,11,3.2c2.8,2.4,4.3,5.7,4.3,9.7c0,4.5-1.7,7.9-5,10.2c-1.3,0.9-2.9,1.5-4.7,1.9l13.5,18.2
			h-10.5l-11.5-17.3h-1V108h-8.4V64.8z M369.2,71.7v13h2.4c0.7,0,1.4-0.1,2-0.2c0.7-0.1,1.5-0.3,2.6-0.7c1.1-0.4,2-1,2.6-2
			c0.7-1,1-2.2,1-3.7c0-1.5-0.3-2.7-1-3.7c-0.6-1-1.5-1.6-2.6-2c-1.1-0.4-1.9-0.6-2.6-0.7c-0.6-0.1-1.3-0.1-2-0.1H369.2z"/>
		<path d="M430.1,68.9l-4.4,5.8c-1.9-2.5-4.2-3.7-7.1-3.7c-2.1,0-3.6,0.5-4.5,1.5c-1,1-1.4,2.2-1.4,3.5c0,1.2,0.5,2.1,1.4,2.9
			c0.7,0.6,2.4,1.5,5.2,2.5c4.3,1.5,7.2,2.9,8.7,4.3c2.5,2.2,3.7,5.2,3.7,9.1c0,4.2-1.4,7.7-4.2,10.3c-2.8,2.6-6.4,3.9-10.8,3.9
			c-6.2,0-11.2-2.7-14.9-8.2l5.5-5.2c0.9,1.9,2.3,3.4,3.9,4.3c1.7,1,3.4,1.4,5.1,1.4c1.9,0,3.5-0.6,4.8-1.7c1.3-1.1,1.9-2.5,1.9-4.3
			c0-1.5-0.6-2.8-1.7-3.9c-1-1-3.3-2-6.7-3.2c-3.2-1.1-5.6-2.3-7.2-3.8c-2.3-2-3.4-4.7-3.4-8c0-3.5,1.2-6.5,3.6-9
			c2.4-2.5,5.8-3.7,10.3-3.7C422.7,63.9,426.8,65.6,430.1,68.9z"/>
		<path d="M445.5,64.8h8.4V108h-8.4V64.8z"/>
		<path d="M501.7,64.8l-21,35.9h19.9v7.2h-33.9l21-35.9H470v-7.2H501.7z"/>
		<path d="M538.5,64.8v7.2h-15.5v9.6h14.9V89h-14.9v11.8h15.5v7.2h-24V64.8H538.5z"/>
		<path d="M35.2,147.6l4.9,4.9c-1.6,1.9-3.1,3.7-4.7,5.2l-1,1l8.7,9.9H32.8l-4.2-4.9c-4.3,3.9-9,5.8-13.9,5.8
			c-4.2,0-7.5-1.2-9.9-3.7c-2.4-2.5-3.6-5.4-3.6-8.7c0-4.5,2.3-8.2,6.9-10.9l3.4-2c-2.9-2.9-4.3-5.9-4.3-9.1c0-2.9,1-5.5,3.1-7.6
			c2.1-2.1,5-3.2,8.8-3.2c3.6,0,6.4,1,8.5,3s3.1,4.4,3.1,7.2c0,3.9-2,7.1-6.1,9.6l-1.8,1.1l7.1,8.2C32.2,151.3,34,149.3,35.2,147.6z
			 M23.9,158.4l-8.2-9.4c-4.1,2.2-6.1,4.6-6.1,7.4c0,1.6,0.6,3,1.8,4.1c1.2,1.1,2.7,1.6,4.5,1.6C18.7,162.2,21.4,160.9,23.9,158.4z
			 M16.8,138.6l1.9,2.3l1.9-1.4c2-1.4,3-3,3-4.8c0-1.2-0.4-2.2-1.1-3c-0.7-0.8-1.8-1.3-3.1-1.3c-1.4,0-2.5,0.4-3.3,1.2
			c-0.8,0.8-1.1,1.7-1.1,2.8C15,135.8,15.6,137.1,16.8,138.6z"/>
		<path d="M76.7,125.4h10.7c4.7,0,8.2,0.9,10.6,2.7c2.7,2.1,4,5,4,8.9c0,3.8-1.6,6.7-4.9,8.5c2.2,0.3,4.1,1.3,5.6,2.7
			c2.1,2,3.1,4.7,3.1,8.1c0,3.6-1.2,6.5-3.7,8.7c-2.6,2.3-6.3,3.5-10.9,3.5H76.7V125.4z M85.1,132.3v11.1h2.4c0.4,0,0.8,0,1.2,0
			c0.4,0,0.9-0.1,1.6-0.4c0.7-0.2,1.3-0.5,1.8-0.9c0.5-0.4,0.9-0.9,1.3-1.7c0.4-0.8,0.6-1.7,0.6-2.7c0-1.9-0.6-3.2-1.8-4.1
			s-2.8-1.3-4.7-1.3H85.1z M85.1,149.8v11.9h3.6c2.5,0,4.4-0.4,5.8-1.2c1.8-1,2.7-2.7,2.7-5c0-2.3-1.1-4-3.2-4.9
			c-1.2-0.6-3.1-0.8-5.8-0.8H85.1z"/>
		<path d="M149.5,168.6l-3.8-9.1h-17.4l-3.8,9.1h-9.1l18.7-44.1h6.3l18.2,44.1H149.5z M130.9,152.7h12.3l-6.1-15.5L130.9,152.7z"/>
		<path d="M195.7,129.5l-4.4,5.8c-1.9-2.5-4.2-3.7-7.1-3.7c-2.1,0-3.6,0.5-4.5,1.5c-1,1-1.4,2.2-1.4,3.5c0,1.2,0.5,2.1,1.4,2.9
			c0.7,0.6,2.4,1.5,5.2,2.5c4.3,1.5,7.2,2.9,8.7,4.3c2.5,2.2,3.7,5.2,3.7,9.1c0,4.2-1.4,7.7-4.2,10.3c-2.8,2.6-6.4,3.9-10.8,3.9
			c-6.2,0-11.2-2.7-14.9-8.2l5.5-5.2c0.9,1.9,2.3,3.4,3.9,4.3c1.7,1,3.4,1.4,5.1,1.4c1.9,0,3.5-0.6,4.8-1.7c1.3-1.1,1.9-2.5,1.9-4.3
			c0-1.5-0.6-2.8-1.7-3.9c-1-1-3.3-2-6.7-3.2c-3.2-1.1-5.6-2.3-7.2-3.8c-2.3-2-3.4-4.7-3.4-8c0-3.5,1.2-6.5,3.6-9
			c2.4-2.5,5.8-3.7,10.3-3.7C188.3,124.4,192.4,126.1,195.7,129.5z"/>
		<path d="M211.1,125.4h8.4v43.2h-8.4V125.4z"/>
		<path d="M267.2,157.2v9.8c-3.2,1.7-6.8,2.5-10.7,2.5c-6.3,0-11.6-2-15.8-6c-4.6-4.4-6.9-9.9-6.9-16.5c0-7,2.3-12.6,6.9-16.9
			c4.1-3.8,9.3-5.7,15.9-5.7c3.8,0,7.3,0.9,10.6,2.7v9.8c-2.8-3.2-6.3-4.9-10.4-4.9c-4.2,0-7.7,1.5-10.3,4.4c-2.7,3-4,6.5-4,10.6
			c0,4.5,1.5,8.1,4.4,10.8c2.9,2.7,6.3,4,10.2,4C261.1,161.9,264.5,160.3,267.2,157.2z"/>
		<path d="M307,129.5l-4.4,5.8c-1.9-2.5-4.2-3.7-7.1-3.7c-2.1,0-3.6,0.5-4.5,1.5c-1,1-1.4,2.2-1.4,3.5c0,1.2,0.5,2.1,1.4,2.9
			c0.7,0.6,2.4,1.5,5.2,2.5c4.3,1.5,7.2,2.9,8.7,4.3c2.5,2.2,3.7,5.2,3.7,9.1c0,4.2-1.4,7.7-4.2,10.3c-2.8,2.6-6.4,3.9-10.8,3.9
			c-6.2,0-11.2-2.7-14.9-8.2l5.5-5.2c0.9,1.9,2.3,3.4,3.9,4.3c1.7,1,3.4,1.4,5.1,1.4c1.9,0,3.5-0.6,4.8-1.7c1.3-1.1,1.9-2.5,1.9-4.3
			c0-1.5-0.6-2.8-1.7-3.9c-1-1-3.3-2-6.7-3.2c-3.2-1.1-5.6-2.3-7.2-3.8c-2.3-2-3.4-4.7-3.4-8c0-3.5,1.2-6.5,3.6-9
			c2.4-2.5,5.8-3.7,10.3-3.7C299.7,124.4,303.8,126.1,307,129.5z"/>
	</g>
	<g>
		<g>
			<path d="M226.4,6h-1.6v4.5h-0.7V6h-1.6V5.4h3.9V6z"/>
		</g>
		<g>
			<path d="M228.4,5.4l1.6,4.1l1.6-4.1h0.9v5h-0.7v-2l0.1-2.1l-1.7,4.1h-0.5l-1.6-4.1l0.1,2.1v2h-0.7v-5H228.4z"/>
		</g>
	</g>
	<g>
		<path d="M228.3,15.9c-4.4,0-8-3.6-8-8s3.6-8,8-8c4.4,0,8,3.6,8,8S232.7,15.9,228.3,15.9z M228.3,0.5c-4.1,0-7.4,3.3-7.4,7.4
			s3.3,7.4,7.4,7.4s7.4-3.3,7.4-7.4S232.4,0.5,228.3,0.5z"/>
	</g>
</g>
</svg>
