<?xml version="1.0" encoding="utf-8"?>
<!-- Generator: Adobe Illustrator 24.1.2, SVG Export Plug-In . SVG Version: 6.00 Build 0)  -->
<svg version="1.1" id="Слой_1" xmlns="http://www.w3.org/2000/svg" xmlns:xlink="http://www.w3.org/1999/xlink" x="0px" y="0px"
	 viewBox="0 0 233.5 48.4" style="enable-background:new 0 0 233.5 48.4;" xml:space="preserve">
<style type="text/css">
	.st0{fill:#FFFFFF;}
</style>
<g>
	<g>
		<path class="st0" d="M0,4.3h10.7c4.7,0,8.2,0.9,10.6,2.7c2.7,2.1,4,5,4,8.9c0,3.8-1.6,6.7-4.9,8.5c2.2,0.3,4.1,1.3,5.6,2.7
			c2.1,2,3.1,4.7,3.1,8.1c0,3.6-1.2,6.5-3.7,8.7c-2.6,2.3-6.3,3.5-10.9,3.5H0V4.3z M8.4,11.1v11.1h2.4c0.4,0,0.8,0,1.2,0
			s0.9-0.1,1.6-0.4c0.7-0.2,1.3-0.5,1.8-0.9s0.9-0.9,1.3-1.7c0.4-0.8,0.6-1.7,0.6-2.7c0-1.9-0.6-3.2-1.8-4.1s-2.8-1.3-4.7-1.3
			C10.8,11.1,8.4,11.1,8.4,11.1z M8.4,28.7v11.9H12c2.5,0,4.4-0.4,5.8-1.2c1.8-1,2.7-2.7,2.7-5s-1.1-4-3.2-4.9
			c-1.2-0.6-3.1-0.8-5.8-0.8C11.5,28.7,8.4,28.7,8.4,28.7z"/>
		<path class="st0" d="M72.8,47.5L69,38.4H51.5l-3.8,9.1h-9.1L57.3,3.4h6.3l18.2,44.1H72.8z M54.2,31.5h12.3L60.4,16L54.2,31.5z"/>
		<path class="st0" d="M119,8.4l-4.4,5.8c-1.9-2.5-4.2-3.7-7.1-3.7c-2.1,0-3.6,0.5-4.5,1.5c-1,1-1.4,2.2-1.4,3.5
			c0,1.2,0.5,2.1,1.4,2.9c0.7,0.6,2.4,1.5,5.2,2.5c4.3,1.5,7.2,2.9,8.7,4.3c2.5,2.2,3.7,5.2,3.7,9.1c0,4.2-1.4,7.7-4.2,10.3
			c-2.8,2.6-6.4,3.9-10.8,3.9c-6.2,0-11.2-2.7-14.9-8.2l5.5-5.2c0.9,1.9,2.3,3.4,3.9,4.3c1.7,1,3.4,1.4,5.1,1.4
			c1.9,0,3.5-0.6,4.8-1.7c1.3-1.1,1.9-2.5,1.9-4.3c0-1.5-0.6-2.8-1.7-3.9c-1-1-3.3-2-6.7-3.2c-3.2-1.1-5.6-2.3-7.2-3.8
			c-2.3-2-3.4-4.7-3.4-8c0-3.5,1.2-6.5,3.6-9s5.8-3.7,10.3-3.7C111.6,3.3,115.7,5,119,8.4z"/>
		<path class="st0" d="M158.3,4.3v7.2h-15.5v9.6h14.9v7.3h-14.9v11.8h15.5v7.2h-24V4.3H158.3z"/>
		<path class="st0" d="M173,4.3h11.3c3.4,0,6.4,0.3,8.9,0.9s4.9,1.7,7.1,3.3c2.6,2,4.7,4.5,6.1,7.5c1.4,3,2.2,6.3,2.2,9.9
			c0,7.6-2.9,13.4-8.7,17.4c-2.3,1.6-4.7,2.7-7.1,3.3s-5.3,0.8-8.7,0.8H173V4.3z M181.4,11.5v28.7h2.6c4.4,0,7.9-0.9,10.6-2.8
			c1.7-1.2,3-2.8,3.9-4.9s1.4-4.2,1.4-6.6c0-2.3-0.5-4.5-1.4-6.5s-2.2-3.7-3.9-5c-2.5-1.9-6.1-2.8-10.6-2.8L181.4,11.5L181.4,11.5z"
			/>
	</g>
	<g>
		<g>
			<path class="st0" d="M223.7,6h-1.6v4.5h-0.7V6h-1.6V5.4h3.9L223.7,6L223.7,6z"/>
		</g>
		<g>
			<path class="st0" d="M225.7,5.4l1.6,4.1l1.6-4.1h0.9v5h-0.7v-2l0.1-2.1l-1.7,4.1H227l-1.6-4.1l0.1,2.1v2h-0.7v-5
				C224.8,5.4,225.7,5.4,225.7,5.4z"/>
		</g>
	</g>
	<g>
		<path class="st0" d="M225.6,15.9c-4.4,0-8-3.6-8-8s3.6-8,8-8s8,3.6,8,8S230,15.9,225.6,15.9z M225.6,0.5c-4.1,0-7.4,3.3-7.4,7.4
			s3.3,7.4,7.4,7.4c4.1,0,7.4-3.3,7.4-7.4S229.7,0.5,225.6,0.5z"/>
	</g>
</g>
</svg>
